# AST/ASF file generated using VICON BodyLanguage
# -----------------------------------------------
:version 1.10
:name VICON
:units
  mass 1.0
  length 0.45
  angle deg
:documentation
   .ast/.asf automatically generated from VICON data using
   VICON BodyBuilder and BodyLanguage model FoxedUp or BRILLIANT.MOD
:root
   order TX TY TZ RX RY RZ
   axis XYZ
   position 0 0 0  
   orientation 0 0 0 
:bonedata
  begin
     id 1 
     name lhipjoint
     direction 0.535335 -0.74333 0.401095 
     length 2.04549 
     axis 0 0 0  XYZ
  end
  begin
     id 2 
     name lfemur
     direction 0.34202 -0.939693 0  
     length 6.95643  
     axis 0 0 20  XYZ
    dof rx ry rz
    limits (-160.0 20.0)
           (-70.0 70.0)
           (-60.0 70.0)
  end
  begin
     id 3 
     name ltibia
     direction 0.34192 -0.939729 0   
     length 5.55969   
     axis 0 0 20   XYZ
    dof rx
    limits (-10.0 170.0)
  end
  begin
     id 4 
     name lfoot
     direction 0.216943 -0.596046 0.773088   
     length 2.27918   
     axis -90 7.62852e-016 20   XYZ
    dof rx rz
    limits (-45.0 90.0)
           (-70.0 20.0)
  end
  begin
     id 5 
     name ltoes
     direction 1.53519e-011 -4.21748e-011 1   
     length 1.05562   
     axis -90 7.62852e-016 20   XYZ
    dof rx
    limits (-90.0 20.0)
  end
  begin
     id 6 
     name rhipjoint
     direction -0.576368 -0.719173 0.38806   
     length 2.1142  
     axis 0 0 0  XYZ 
  end
  begin
     id 7 
     name rfemur
     direction -0.34202 -0.939693 0   
     length 7.07928   
     axis 0 0 -20   XYZ
    dof rx ry rz
    limits (-160.0 20.0)
           (-70.0 70.0)
           (-70.0 60.0)
  end
  begin
     id 8 
     name rtibia
     direction -0.34202 -0.939693 0   
     length 5.79974   
     axis 0 0 -20   XYZ
    dof rx
    limits (-10.0 170.0)
 end
 begin
     id 9 
     name rfoot
     direction -0.189288 -0.520065 0.832888   
     length 2.42173  
     axis -90 -7.62852e-016 -20   XYZ
    dof rx rz
    limits (-45.0 90.0)
           (-20.0 70.0)
  end
  begin
     id 10 
     name rtoes
     direction -1.53574e-011 -4.21658e-011 1   
     length 1.14469   
     axis -90 -7.62852e-016 -20   XYZ
    dof rx
    limits (-90.0 20.0)
  end
  begin
     id 11 
     name lowerback
     direction -0.00135702 0.993803 0.111144   
     length 1.91308   
     axis 0 0 0   XYZ
    dof rx ry rz
    limits (-20.0 45.0)
           (-30.0 30.0)
           (-30.0 30.0)
  end
  begin
     id 12 
     name upperback
     direction -0.0056745 0.999813 0.0184631   
     length 1.9212   
     axis 0 0 0   XYZ
    dof rx ry rz
    limits (-20.0 45.0)
           (-30.0 30.0)
           (-30.0 30.0)
  end
  begin
     id 13 
     name thorax
     direction -0.00733434 0.999426 -0.0330788   
     length 1.94196   
     axis 0 0 0   XYZ
    dof rx ry rz
    limits (-20.0 45.0)
           (-30.0 30.0)
           (-30.0 30.0)
  end
  begin
     id 14 
     name lowerneck
     direction 0.0563074 0.996944 -0.0541571   
     length 2.34257   
     axis 0 0 0   XYZ
    dof rx ry rz
    limits (-20.0 45.0)
           (-30.0 30.0)
           (-30.0 30.0)
  end
  begin
     id 15 
     name upperneck
     direction -0.0544519 0.976166 -0.210085   
     length 2.32506   
     axis 0 0 0   XYZ
    dof rx ry rz
    limits (-20.0 45.0)
           (-30.0 30.0)
           (-30.0 30.0)
  end
  begin
     id 16
     name head
     direction -0.0226035 0.997615 -0.0652205  
     length 2.3648  
     axis 0 0 0   XYZ
    dof rx ry rz
    limits (-20.0 45.0)
           (-30.0 30.0)
           (-30.0 30.0)
  end
  begin
     id 17 
     name lclavicle
     direction 0.92109 0.381297 -0.0787716  
     length 4.0487  
     axis 0 0 0   XYZ
    dof ry rz
    limits (-20.0 10.0)
           (0.0 20.0)
  end
  begin
     id 18 
     name lhumerus
     direction 1 -4.48986e-011 3.56724e-027   
     length 4.94991   
     axis 180 -30 -90   XYZ
    dof rx ry rz
    limits (-60.0 90.0)
           (-90.0 90.0)
           (-90.0 90.0)
  end
  begin
     id 19
     name lradius
     direction 1 -4.48981e-011 8.62147e-027   
     length 2.7606   
     axis 180 -30 -90   XYZ
    dof rx
    limits (-10.0 170.0)
  end
  begin
     id 20
     name lwrist
     direction 1 -4.48989e-011 1.59799e-026   
     length 1.3803   
     axis -1.17785e-014 90 90   XYZ
    dof ry
    limits (-180.0 0.0)
 end
  begin
     id 21 
     name lhand
     direction 1 -4.48896e-011 3.19599e-026   
     length 0.843936   
     axis -2.03931e-014 90 90   XYZ
    dof rx rz
    limits (-90.0 90.0)
           (-45.0 45.0)
  end
  begin
     id 22 
     name lfingers
     direction 1 -4.48887e-011 6.39197e-026   
     length 0.680403   
     axis -4.07862e-014 90 90   XYZ
    dof rx
    limits (0.0 90.0)
  end
  begin
     id 23
     name lthumb
     direction 0.707107 -6.348e-011 0.707107   
     length 0.976926   
     axis -90 45 2.85299e-015   XYZ
    dof rx rz
    limits (-45.0 45.0)
           (-45.0 45.0)
  end
  begin
     id 24 
     name rclavicle
     direction -0.951104 0.307692 -0.026953   
     length 4.21801  
     axis 0 0 0   XYZ 
    dof ry rz
    limits (-10.0 20.0)
           (-20.0 0.0)
  end
  begin
     id 25 
     name rhumerus
     direction -1 -4.4896e-011 -1.8171e-018  
     length 4.32982   
     axis 180 30 90   XYZ
    dof rx ry rz
    limits (-90.0 60.0)
           (-90.0 90.0)
           (-90.0 90.0)
  end
  begin
     id 26 
     name rradius
     direction -1 -4.48959e-011 8.25165e-027   
     length 3.20057   
     axis 180 30 90   XYZ
    dof rx
    limits (-10.0 170.0)
  end
  begin
     id 27 
     name rwrist
     direction -1 -4.48997e-011 1.59799e-026   
     length 1.60029   
     axis -1.17785e-014 -90 -90   XYZ
    dof ry
    limits (-180.0 0.0)
  end
  begin
     id 28
     name rhand
     direction -1 -4.49023e-011 3.19599e-026   
     length 0.960433   
     axis -2.03931e-014 -90 -90   XYZ
    dof rx rz
    limits (-90.0 90.0)
           (-45.0 45.0)
  end
  begin
     id 29
     name rfingers
     direction -1 -4.48802e-011 6.39197e-026   
     length 0.774326   
     axis -4.07862e-014 -90 -90   XYZ
    dof rx
    limits (0.0 90.0)
  end
  begin
     id 30
     name rthumb
     direction -0.707107 -6.34876e-011 0.707107   
     length 1.11178   
     axis -90 -45 -2.85299e-015   XYZ
    dof rx rz
    limits (-45.0 45.0)
           (-45.0 45.0)
  end
:hierarchy
  begin
    root lhipjoint rhipjoint lowerback
    lhipjoint lfemur
    lfemur ltibia
    ltibia lfoot
    lfoot ltoes
    rhipjoint rfemur
    rfemur rtibia
    rtibia rfoot
    rfoot rtoes
    lowerback upperback
    upperback thorax
    thorax lowerneck lclavicle rclavicle
    lowerneck upperneck
    upperneck head
    lclavicle lhumerus
    lhumerus lradius
    lradius lwrist
    lwrist lhand lthumb
    lhand lfingers
    rclavicle rhumerus
    rhumerus rradius
    rradius rwrist
    rwrist rhand rthumb
    rhand rfingers
end

#!OML:ASF C:\KaitlinTest1\Natural Motions\Nikki\Session 2\Nikki.ASF
:FULLY-SPECIFIED
:DEGREES
20
root -13.6943 16.6511 4.54411 -106.975 87.7173 -115.066
lowerback -11.1402 -0.94712 2.91076
upperback -3.66847 -1.40082 -1.11585
thorax 2.31146 -0.651401 -2.97721
lowerneck -5.16403 -11.6927 -9.87997
upperneck 5.9847 40.5967 5.79171
head 167.093 61.9598 -37.7412
rclavicle 8.10048e-015 7.95139e-016
rhumerus -40.2934 -29.5675 -79.682
rradius 16.764
rwrist 27.5777
rhand -36.6138 2.09221
rfingers 7.12502
rthumb -9.70205 -27.6643
lclavicle 8.10048e-015 7.95139e-016
lhumerus -39.9732 16.5364 81.0796
lradius 20.2113
lwrist -42.2682
lhand -33.5175 3.47606
lfingers 7.12502
lthumb -6.71379 33.3496
rfemur -5.40857 -13.631 20.0268
rtibia 11.6066
rfoot -11.1231 10.9239
rtoes 1.59028e-015
lfemur -11.0997 14.7347 -18.7934
ltibia 15.935
lfoot -5.07524 -15.2934
ltoes -7.95139e-015
21
root -13.6945 16.6501 4.54515 -106.908 87.7119 -114.984
lowerback -11.1474 -0.941364 2.92406
upperback -3.64457 -1.3957 -1.12369
thorax 2.34011 -0.64844 -2.9928
lowerneck -5.19675 -11.6858 -9.86787
upperneck 5.99765 40.6856 5.82536
head 167.237 61.8446 -37.6616
rclavicle 3.8266e-015 1.19271e-015
rhumerus -40.276 -29.5696 -79.7137
rradius 16.7806
rwrist 27.5543
rhand -36.5863 1.99436
rfingers 7.12502
rthumb -9.67547 -27.7634
lclavicle 3.8266e-015 1.19271e-015
lhumerus -39.9689 16.6662 80.9843
lradius 20.2096
lwrist -42.4538
lhand -33.4253 3.50382
lfingers 7.12502
lthumb -6.62484 33.3802
rfemur -5.39876 -13.6324 20.0323
rtibia 11.623
rfoot -11.1331 10.9242
rtoes 1.98785e-014
lfemur -11.073 14.7324 -18.7757
ltibia 15.9249
lfoot -5.09392 -15.2771
ltoes 7.95139e-015
22
root -13.6942 16.6517 4.54538 -107.053 87.7337 -115.141
lowerback -11.1677 -0.940639 2.90637
upperback -3.63848 -1.3931 -1.1336
thorax 2.35798 -0.646726 -2.99341
lowerneck -5.20587 -11.6859 -9.86598
upperneck 5.98521 40.6603 5.82063
head 167.252 61.8623 -37.6491
rclavicle 2.47984e-014 3.18055e-015
rhumerus -40.2504 -29.5097 -79.7789
rradius 16.8128
rwrist 27.4776
rhand -36.5841 1.97196
rfingers 7.12502
rthumb -9.67341 -27.7859
lclavicle 2.47984e-014 3.18055e-015
lhumerus -39.952 16.7166 80.9277
lradius 20.1614
lwrist -42.6019
lhand -33.5185 3.47867
lfingers 7.12502
lthumb -6.71473 33.3522
rfemur -5.41224 -13.6307 20.0104
rtibia 11.6252
rfoot -11.1397 10.9337
rtoes -1.27222e-014
lfemur -11.0938 14.7412 -18.8054
ltibia 15.9291
lfoot -5.09015 -15.2925
ltoes -4.13472e-014
23
root -13.6943 16.6521 4.54607 -107.04 87.7522 -115.138
lowerback -11.1516 -0.934346 2.89478
upperback -3.66177 -1.38186 -1.13921
thorax 2.32587 -0.641689 -2.99054
lowerneck -5.18503 -11.6955 -9.86524
upperneck 5.99249 40.6523 5.81879
head 167.213 61.866 -37.6714
rclavicle 1.70955e-014 1.59028e-015
rhumerus -40.3166 -29.5556 -79.7149
rradius 16.8096
rwrist 27.5291
rhand -36.5491 1.92685
rfingers 7.12502
rthumb -9.63962 -27.8326
lclavicle 1.70955e-014 1.59028e-015
lhumerus -39.9862 16.7257 80.9058
lradius 20.1322
lwrist -42.5608
lhand -33.5844 3.38942
lfingers 7.12502
lthumb -6.77843 33.2609
rfemur -5.4295 -13.6098 19.9957
rtibia 11.6377
rfoot -11.1087 10.9247
rtoes -3.33958e-014
lfemur -11.1048 14.7303 -18.8256
ltibia 15.9286
lfoot -5.08514 -15.2832
ltoes -2.8625e-014
24
root -13.6943 16.6515 4.5468 -106.897 87.7314 -114.993
lowerback -11.1575 -0.938302 2.90992
upperback -3.65277 -1.38969 -1.12841
thorax 2.3378 -0.645393 -2.9891
lowerneck -5.21236 -11.7032 -9.85005
upperneck 5.99041 40.6577 5.81371
head 167.141 61.8838 -37.7298
rclavicle 1.82385e-014 1.59028e-014
rhumerus -40.2868 -29.4561 -79.7801
rradius 16.8252
rwrist 27.4067
rhand -36.5579 1.90618
rfingers 7.12502
rthumb -9.64808 -27.8529
lclavicle 1.82385e-014 1.59028e-014
lhumerus -39.9829 16.7071 80.9331
lradius 20.1554
lwrist -42.414
lhand -33.5737 3.39261
lfingers 7.12502
lthumb -6.76807 33.2644
rfemur -5.43469 -13.6881 20.0256
rtibia 11.6494
rfoot -11.1358 10.9682
rtoes 5.24792e-014
lfemur -11.1044 14.7425 -18.7981
ltibia 15.9313
lfoot -5.07419 -15.3004
ltoes -5.40694e-014
25
root -13.6946 16.6511 4.54702 -106.922 87.7428 -115.02
lowerback -11.1377 -0.938713 2.91194
upperback -3.66868 -1.3889 -1.14058
thorax 2.31007 -0.645575 -3.0021
lowerneck -5.18574 -11.6963 -9.85009
upperneck 6.00521 40.6854 5.82988
head 167.208 61.8277 -37.6771
rclavicle -2.23136e-014 -3.18055e-015
rhumerus -40.3238 -29.4756 -79.7712
rradius 16.8323
rwrist 27.4026
rhand -36.5375 1.92288
rfingers 7.12502
rthumb -9.62843 -27.8371
lclavicle -2.23136e-014 -3.18055e-015
lhumerus -40.0316 16.759 80.8515
lradius 20.1445
lwrist -42.5917
lhand -33.5383 3.39545
lfingers 7.12502
lthumb -6.73387 33.2684
rfemur -5.44442 -13.6535 20.0165
rtibia 11.6469
rfoot -11.1241 10.9486
rtoes -5.64548e-014
lfemur -11.1159 14.77 -18.8134
ltibia 15.9484
lfoot -5.10197 -15.3093
ltoes -1.43125e-014
26
root -13.6945 16.6504 4.54749 -106.715 87.7389 -114.819
lowerback -11.1505 -0.940477 2.91656
upperback -3.65668 -1.39286 -1.13261
thorax 2.32936 -0.647179 -2.9974
lowerneck -5.21287 -11.7001 -9.85133
upperneck 5.98529 40.6523 5.81197
head 167.184 61.836 -37.6851
rclavicle 1.32192e-014 -4.77083e-015
rhumerus -40.2999 -29.5212 -79.7366
rradius 16.8038
rwrist 27.4998
rhand -36.54 1.91948
rfingers 7.12502
rthumb -9.63086 -27.8404
lclavicle 1.32192e-014 -4.77083e-015
lhumerus -40.0194 16.8402 80.8165
lradius 20.1239
lwrist -42.6794
lhand -33.5534 3.3891
lfingers 7.12502
lthumb -6.74845 33.2616
rfemur -5.44797 -13.7114 20.029
rtibia 11.6481
rfoot -11.1657 11.0037
rtoes -3.65764e-014
lfemur -11.1207 14.7381 -18.8039
ltibia 15.9599
lfoot -5.10826 -15.2728
ltoes -8.5875e-014
27
root -13.6944 16.6507 4.54779 -106.123 87.7328 -114.244
lowerback -11.1646 -0.929822 2.93482
upperback -3.66562 -1.38064 -1.12979
thorax 2.32819 -0.641071 -3.00344
lowerneck -5.21254 -11.6911 -9.85324
upperneck 6.00337 40.7204 5.83706
head 167.282 61.7586 -37.6289
rclavicle 7.30534e-015 -2.78299e-015
rhumerus -40.3305 -29.4857 -79.7446
rradius 16.8327
rwrist 27.4437
rhand -36.5268 1.86134
rfingers 7.12502
rthumb -9.61812 -27.8991
lclavicle 7.30534e-015 -2.78299e-015
lhumerus -40.0135 16.7584 80.846
lradius 20.1234
lwrist -42.5801
lhand -33.4902 3.41746
lfingers 7.12502
lthumb -6.68748 33.2919
rfemur -5.4818 -13.7033 20.0473
rtibia 11.6755
rfoot -11.1705 11.0196
rtoes -5.56597e-014
lfemur -11.1333 14.7503 -18.7923
ltibia 15.9487
lfoot -5.10346 -15.2677
ltoes -9.54166e-015
28
root -13.695 16.6506 4.54878 -106.604 87.7496 -114.705
lowerback -11.1323 -0.923809 2.91214
upperback -3.67809 -1.36905 -1.12868
thorax 2.29904 -0.635859 -2.98704
lowerneck -5.18399 -11.6868 -9.89141
upperneck 6.01793 40.7502 5.83926
head 167.32 61.7284 -37.6021
rclavicle 2.98177e-015 -1.98785e-015
rhumerus -40.389 -29.5713 -79.6513
rradius 16.8194
rwrist 27.5028
rhand -36.5368 1.87694
rfingers 7.12502
rthumb -9.62771 -27.8831
lclavicle 2.98177e-015 -1.98785e-015
lhumerus -40.0578 16.8292 80.7969
lradius 20.106
lwrist -42.7179
lhand -33.5192 3.35052
lfingers 7.12502
lthumb -6.71546 33.224
rfemur -5.45645 -13.6872 20.0202
rtibia 11.6725
rfoot -11.184 11.0021
rtoes -1.27222e-014
lfemur -11.1137 14.7541 -18.8082
ltibia 15.9503
lfoot -5.11145 -15.2835
ltoes -3.81667e-014
29
root -13.6953 16.6504 4.54979 -106.937 87.7547 -115.035
lowerback -11.1212 -0.939486 2.90224
upperback -3.66168 -1.3888 -1.14528
thorax 2.30846 -0.645647 -3.00121
lowerneck -5.22502 -11.693 -9.83849
upperneck 5.99995 40.7213 5.84435
head 167.304 61.7603 -37.6205
rclavicle 3.47873e-016 7.95139e-015
rhumerus -40.3486 -29.5814 -79.6985
rradius 16.8014
rwrist 27.5674
rhand -36.5126 1.8029
rfingers 7.12502
rthumb -9.60445 -27.9582
lclavicle 3.47873e-016 7.95139e-015
lhumerus -40.0361 16.8053 80.7672
lradius 20.1261
lwrist -42.676
lhand -33.5007 3.38446
lfingers 7.12502
lthumb -6.69757 33.2585
rfemur -5.44702 -13.6985 20.0136
rtibia 11.6585
rfoot -11.181 11.0069
rtoes 5.88403e-014
lfemur -11.1124 14.7357 -18.8138
ltibia 15.955
lfoot -5.10835 -15.2798
ltoes 6.99722e-014
30
root -13.6954 16.6506 4.55058 -107.15 87.7314 -115.229
lowerback -11.1053 -0.936067 2.91899
upperback -3.64706 -1.38673 -1.13993
thorax 2.31488 -0.644653 -3.00468
lowerneck -5.24853 -11.7104 -9.82751
upperneck 5.98674 40.6897 5.83145
head 167.236 61.7965 -37.6705
rclavicle -5.26779e-015 6.75868e-015
rhumerus -40.3516 -29.6107 -79.7027
rradius 16.8255
rwrist 27.5506
rhand -36.5206 1.74906
rfingers 7.12502
rthumb -9.61214 -28.0117
lclavicle -5.26779e-015 6.75868e-015
lhumerus -40.0257 16.9269 80.6995
lradius 20.0903
lwrist -42.799
lhand -33.5098 3.41632
lfingers 7.12502
lthumb -6.70635 33.2901
rfemur -5.42345 -13.6944 20.0305
rtibia 11.6529
rfoot -11.1778 10.9929
rtoes -1.90833e-014
lfemur -11.0928 14.6847 -18.7802
ltibia 15.9554
lfoot -5.10919 -15.2303
ltoes -4.77083e-015
31
root -13.6953 16.6507 4.55104 -107.136 87.7349 -115.219
lowerback -11.1231 -0.938244 2.91871
upperback -3.63438 -1.39048 -1.1412
thorax 2.33749 -0.646074 -3.00694
lowerneck -5.28037 -11.7102 -9.81414
upperneck 5.98565 40.715 5.83759
head 167.239 61.7872 -37.6827
rclavicle 1.31198e-014 3.57812e-015
rhumerus -40.3651 -29.7466 -79.6077
rradius 16.7812
rwrist 27.7259
rhand -36.4998 1.82199
rfingers 7.12502
rthumb -9.59201 -27.9397
lclavicle 1.31198e-014 3.57812e-015
lhumerus -40.0236 17.0747 80.5911
lradius 20.0686
lwrist -43.0428
lhand -33.5076 3.3837
lfingers 7.12502
lthumb -6.70428 33.2576
rfemur -5.42431 -13.6907 20.0338
rtibia 11.6433
rfoot -11.1782 10.9803
rtoes -1.74931e-014
lfemur -11.1069 14.7127 -18.7865
ltibia 15.9675
lfoot -5.13274 -15.2594
ltoes -7.15625e-014
32
root -13.6954 16.6509 4.55188 -107.399 87.72 -115.489
lowerback -11.1244 -0.940342 2.93414
upperback -3.63747 -1.39482 -1.14035
thorax 2.33426 -0.648303 -3.0153
lowerneck -5.27297 -11.7111 -9.81438
upperneck 5.98058 40.6898 5.83258
head 167.221 61.8237 -37.6929
rclavicle -2.25124e-014 3.57812e-015
rhumerus -40.3594 -29.6668 -79.6579
rradius 16.8062
rwrist 27.6284
rhand -36.487 1.70381
rfingers 7.12502
rthumb -9.57972 -28.0584
lclavicle -2.25124e-014 3.57812e-015
lhumerus -40.0195 16.9449 80.6551
lradius 20.0937
lwrist -42.882
lhand -33.4717 3.37305
lfingers 7.12502
lthumb -6.66958 33.248
rfemur -5.42863 -13.6851 20.0503
rtibia 11.6296
rfoot -11.1581 10.9591
rtoes -5.56597e-014
lfemur -11.1189 14.6961 -18.7726
ltibia 15.9744
lfoot -5.1242 -15.2489
ltoes -4.45278e-014
33
root -13.6954 16.6507 4.552 -107.028 87.7134 -115.137
lowerback -11.1136 -0.935339 2.93381
upperback -3.67884 -1.38695 -1.11023
thorax 2.28665 -0.645084 -2.98183
lowerneck -5.21385 -11.6837 -9.88553
upperneck 6.01231 40.7648 5.8422
head 167.336 61.7291 -37.6033
rclavicle -5.71506e-015 9.54166e-015
rhumerus -40.4186 -29.5623 -79.6167
rradius 16.8144
rwrist 27.5109
rhand -36.5365 1.7736
rfingers 7.12502
rthumb -9.62744 -27.9864
lclavicle -5.71506e-015 9.54166e-015
lhumerus -40.0958 17.0952 80.5955
lradius 20.0624
lwrist -43.0184
lhand -33.4811 3.34786
lfingers 7.12502
lthumb -6.67867 33.2225
rfemur -5.4458 -13.698 20.0684
rtibia 11.6333
rfoot -11.1508 10.9749
rtoes -4.21423e-014
lfemur -11.1414 14.7118 -18.7635
ltibia 15.9791
lfoot -5.09252 -15.2514
ltoes -6.83819e-014
